<svg xmlns="http://www.w3.org/2000/svg" viewBox="0 0 200 40" fill="currentColor">
  <path d="M23.9 5.1c-2.7 0-5.1 1.5-6.7 3.9l-.5.8-.5-.8C14.6 6.6 12.2 5.1 9.5 5.1 4.3 5.1 0 10.2 0 16.5c0 7.6 6.8 13.8 17.1 24.6l-.3.3.3-.3c10.3-10.8 17.1-17 17.1-24.6 0-6.3-4.3-11.4-9.5-11.4h-.8z"/>
  <path d="M68.8 15.8h-7.2l-7.4 10.8V15.8h-6v18.8H55l7.2-10.6v10.6h6.6V15.8zM85.2 21.6c0-4-2.8-6.2-7-6.2-3.8 0-6.8 2-8 5.2l5.4 1.8c.6-1.6 1.6-2.2 2.8-2.2 1.2 0 1.8.6 1.8 1.4 0 .6-.4 1-1.2 1.2l-3.6.8c-3.6.8-5.6 2.8-5.6 5.6 0 3 2.4 5.2 5.8 5.2 2.4 0 4.2-1 5.2-2.8v2.4h4.4V21.6zm-5.6 6c-.2 1.6-1.4 2.6-3 2.6-1.2 0-1.8-.6-1.8-1.4s.4-1.2 1.4-1.4l3.4-.8v1zM102.2 15.8h-6v1.2c-1.2-1-2.8-1.6-4.6-1.6-4.4 0-7.8 3.6-7.8 9.6s3.4 9.6 7.8 9.6c1.8 0 3.4-.6 4.6-1.6v1.2h6V15.8zm-6 9.2c0 2.8-1.6 4.6-4 4.6s-4-1.8-4-4.6 1.6-4.6 4-4.6 4 1.8 4 4.6zM119 15.8h-6v1.2c-1.2-1-2.6-1.6-4.4-1.6-4.4 0-7.8 3.6-7.8 9.6s3.4 9.6 7.8 9.6c1.8 0 3.2-.6 4.4-1.6v1.2h6V15.8zm-6 9.2c0 2.8-1.6 4.6-4 4.6s-4-1.8-4-4.6 1.6-4.6 4-4.6 4 1.8 4 4.6zM134.8 15.8H129v1c-1.2-.8-2.6-1.4-4.4-1.4-4.4 0-7.6 3.6-7.6 9.6s3.2 9.6 7.6 9.6c1.8 0 3.2-.6 4.4-1.4v1h5.8V15.8zm-5.8 9.2c0 2.8-1.6 4.6-4 4.6s-4-1.8-4-4.6 1.6-4.6 4-4.6 4 1.8 4 4.6z"/>
</svg>
