<svg xmlns="http://www.w3.org/2000/svg" viewBox="0 0 170 55" fill="currentColor">
  <path d="M150.4 43.9h6.8l-7.3-16.1 7.1-15.3h-6.6l-6.9 15.3 6.9 16.1zm-15.6 0h6.2V12.5h-6.2v31.4zm-25.6 0h6.2V32.3c0-5.2 2.8-8.4 7-8.4 3.9 0 5.9 2.5 5.9 7.1v12.9h6.2V29.8c0-7.5-4.1-12.1-10.9-12.1-3.8 0-6.8 1.6-8.4 4.3V18h-6v25.9zm-25 0h6.2V32.3c0-5.2 2.8-8.4 7-8.4 3.9 0 5.9 2.5 5.9 7.1v12.9h6.2V29.8c0-7.5-4.1-12.1-10.9-12.1-3.8 0-6.8 1.6-8.4 4.3V18h-6v25.9zM60.5 31c0 8.1 5.6 13.4 13.2 13.4 5.5 0 9.8-2.6 11.8-7.1l-5.4-2.4c-1.2 2.6-3.5 4-6.4 4-4.2 0-7-2.8-7.4-6.8h19.5v-1.8c0-8.1-5.3-12.8-12.5-12.8-7.5 0-12.8 5.5-12.8 13.5zm6.6-2.8c.6-3.5 3.1-5.8 6.4-5.8 3.2 0 5.6 2.2 6.1 5.8H67.1zM43.9 18v16.7l-9.8-16.7h-6.6v25.9h6.2V27.2l9.8 16.7h6.6V18h-6.2zM13.2 12v5h4.2v26.9h6.2V17h4.2v-5H13.2z"/>
</svg>
