<svg xmlns="http://www.w3.org/2000/svg" viewBox="0 0 200 40" fill="currentColor">
  <path d="M35.27 10.53h-6.35l-8.14 12.37L12.3 10.53H0l14.42 19.21v10.73h6.53V29.74l14.32-19.21zM55.96 10.53l-9.67 29.94h6.74l1.8-5.98h10.08l1.8 5.98h6.86L63.92 10.53h-7.96zm-.63 18.42l3.63-11.98 3.62 11.98h-7.25zM100 10.53h-6.53v29.94h6.53V10.53zM126.77 10.53h-8.35l-9.67 14.64V10.53h-6.53v29.94h6.53V27.72l10.32 12.75h8.25l-11.64-14.64 11.09-15.3zM151.16 10.53h-6.53v17.93l-12.96-17.93h-6.04v29.94h6.53V22.58l12.96 17.89h6.04V10.53zM179.85 10.53h-22.33v29.94h22.33v-5.52h-15.8v-6.94h14.1v-5.52h-14.1v-6.43h15.8v-5.53zM200 16.05v-5.52h-22.33v29.94h22.33v-5.52h-15.8v-6.94h14.1v-5.52h-14.1v-6.43H200z"/>
</svg>
